<?xml version="1.0" standalone="no"?>
<!DOCTYPE svg PUBLIC "-//W3C//DTD SVG 20010904//EN"
 "http://www.w3.org/TR/2001/REC-SVG-20010904/DTD/svg10.dtd">
<svg version="1.0" xmlns="http://www.w3.org/2000/svg"
 width="500.000000pt" height="500.000000pt" viewBox="0 0 500.000000 500.000000"
 preserveAspectRatio="xMidYMid meet">

<g transform="translate(0.000000,500.000000) scale(0.100000,-0.100000)"
fill="#000000" stroke="none">
<path d="M2417 2951 c-15 -5 -6 -17 54 -69 48 -41 82 -62 98 -62 15 0 135 -1
269 -3 133 -1 242 -1 242 1 0 5 -90 42 -190 79 -130 49 -407 80 -473 54z"/>
<path d="M2185 2926 c-75 -17 -115 -33 -115 -44 0 -5 9 -17 19 -26 11 -10 25
-31 32 -48 l12 -31 131 6 c72 4 148 7 169 7 20 0 37 4 37 8 0 18 -74 94 -110
112 -53 27 -105 32 -175 16z"/>
<path d="M1964 2887 c-28 -17 -85 -61 -127 -97 -42 -36 -121 -89 -174 -117
-112 -60 -118 -71 -10 -17 89 45 145 82 222 150 33 28 82 66 109 83 28 17 46
31 40 31 -5 0 -32 -15 -60 -33z"/>
<path d="M1963 2835 c-57 -38 -91 -82 -55 -71 10 4 57 8 103 11 83 4 89 6 89
24 0 18 -52 71 -69 71 -9 0 -40 -16 -68 -35z"/>
<path d="M2850 2801 l-85 -6 97 -7 c138 -10 334 -46 378 -68 21 -11 58 -40 84
-65 53 -53 57 -50 20 13 -21 36 -24 46 -13 54 8 5 65 7 128 6 l114 -3 -57 17
c-64 20 -219 43 -381 58 -113 10 -139 10 -285 1z"/>
<path d="M3011 2706 c-31 -37 51 -97 106 -79 16 6 29 18 30 29 3 18 2 18 -6
-1 -5 -11 -10 -15 -10 -8 -1 6 -4 19 -8 29 -5 13 -3 15 7 9 8 -5 11 -4 6 3 -4
6 -14 8 -23 5 -10 -4 -14 -2 -10 4 3 5 1 10 -6 11 -7 1 -26 4 -43 8 -21 4 -34
1 -43 -10z"/>
<path d="M3167 2713 c-11 -10 -7 -47 6 -64 31 -41 95 -52 104 -18 5 16 8 18
15 7 7 -9 8 -8 5 7 -2 11 -9 19 -16 17 -7 -1 -10 2 -7 7 3 5 -12 18 -34 30
-42 22 -62 26 -73 14z"/>
<path d="M3360 2711 c-13 -9 -12 -17 9 -57 14 -25 34 -52 45 -59 13 -8 61 -15
126 -17 l105 -3 -2 35 -1 35 14 -27 c8 -16 19 -28 24 -28 13 0 13 4 -7 45 -17
35 -32 46 -34 23 0 -7 -4 -2 -10 10 -5 13 -18 26 -29 29 -11 3 -18 8 -16 12 7
10 -208 12 -224 2z"/>
<path d="M2768 2615 c38 -32 56 -97 50 -179 -7 -79 -32 -133 -78 -165 l-35
-24 30 7 c79 18 120 85 119 196 0 82 -24 145 -66 174 -36 26 -52 18 -20 -9z"/>
<path d="M1911 2532 c20 -59 33 -62 244 -61 l190 2 -130 8 c-249 17 -251 17
-285 52 l-30 31 11 -32z"/>
<path d="M1995 2440 c-26 -5 10 -8 100 -9 77 0 164 -4 193 -7 28 -4 52 -3 52
2 0 5 -62 10 -138 12 -75 2 -144 4 -152 6 -8 2 -33 0 -55 -4z"/>
<path d="M2910 2385 c0 -42 1 -44 33 -49 124 -19 539 -23 671 -6 73 9 126 30
126 48 -1 26 -17 30 -70 15 -40 -11 -108 -15 -254 -14 -233 0 -288 5 -312 32
-14 16 -31 19 -106 19 l-88 0 0 -45z"/>
<path d="M1758 2373 c7 -3 16 -2 19 1 4 3 -2 6 -13 5 -11 0 -14 -3 -6 -6z"/>
<path d="M2861 2366 c-1 -29 -38 -82 -74 -106 l-32 -21 57 4 c85 7 158 67 81
67 -18 0 -24 4 -19 15 3 8 1 25 -4 37 -7 20 -9 20 -9 4z"/>
<path d="M1935 2345 c99 -17 178 -24 270 -23 l130 0 -245 24 c-304 29 -333 28
-155 -1z"/>
<path d="M3300 2290 c0 -15 60 -49 98 -56 42 -8 111 11 148 41 l29 24 -137 0
c-87 1 -138 -3 -138 -9z"/>
<path d="M1144 2036 c-52 -23 -74 -60 -74 -128 0 -55 3 -63 34 -94 30 -30 40
-34 88 -34 60 0 95 18 85 43 -5 14 -11 15 -32 7 -75 -28 -125 5 -125 83 0 71
25 91 101 83 49 -5 59 -3 59 10 0 16 -57 44 -87 44 -10 -1 -32 -7 -49 -14z"/>
<path d="M1482 2041 c-14 -8 -112 -224 -112 -246 0 -26 29 -16 45 15 15 29 19
30 79 30 61 0 64 -1 76 -30 12 -30 50 -43 50 -17 0 21 -103 246 -115 251 -7 2
-17 1 -23 -3z m37 -108 l21 -53 -46 0 c-33 0 -45 4 -41 13 29 73 40 97 42 95
2 -2 13 -27 24 -55z"/>
<path d="M2024 2035 c-6 -15 1 -41 48 -173 26 -70 33 -83 51 -80 15 2 27 23
50 91 17 48 34 84 37 80 4 -5 19 -43 35 -86 27 -76 46 -100 66 -80 5 5 28 62
51 127 34 97 39 119 27 126 -20 13 -26 4 -63 -100 l-33 -93 -32 95 c-18 53
-39 99 -46 102 -18 6 -34 -23 -65 -117 -12 -38 -26 -65 -30 -60 -4 4 -20 45
-34 90 -26 78 -50 109 -62 78z"/>
<path d="M2592 2037 c-14 -16 -112 -233 -112 -247 0 -24 38 -8 50 20 12 29 14
30 79 30 65 0 67 -1 78 -30 11 -29 36 -40 47 -21 6 8 -87 223 -107 249 -12 15
-22 15 -35 -1z m41 -100 c9 -23 17 -46 17 -50 0 -4 -20 -7 -44 -7 l-45 0 21
50 c11 28 23 50 27 50 3 0 14 -19 24 -43z"/>
<path d="M3458 2037 c-19 -15 -119 -237 -112 -248 11 -19 36 -8 47 21 11 29
13 30 78 30 65 0 67 -1 79 -30 16 -38 56 -44 46 -6 -9 35 -102 233 -113 239
-6 4 -17 1 -25 -6z m40 -107 l21 -50 -45 0 c-24 0 -44 3 -44 7 0 14 35 93 41
93 4 0 16 -22 27 -50z"/>
<path d="M3700 2035 c-7 -8 -10 -55 -8 -131 3 -115 4 -119 26 -122 21 -3 22 0
22 52 l0 56 70 0 70 0 0 -55 c0 -49 2 -55 20 -55 20 0 20 5 18 133 -3 109 -6
132 -18 132 -11 0 -16 -15 -20 -55 l-5 -55 -67 -3 -68 -3 0 54 c0 57 -17 80
-40 52z"/>
<path d="M1720 1910 c0 -123 1 -130 20 -130 17 0 20 7 20 49 0 55 7 65 45 55
16 -4 34 -23 53 -55 16 -30 34 -49 45 -49 24 0 21 31 -7 73 l-24 35 24 23 c32
30 32 78 1 107 -20 19 -35 22 -100 22 l-77 0 0 -130z m124 90 c18 -6 26 -17
26 -33 0 -34 -19 -47 -67 -47 l-43 0 0 38 c0 21 3 42 7 45 9 10 48 8 77 -3z"/>
<path d="M2835 2028 c-3 -8 -4 -66 -3 -129 l3 -114 85 0 c69 0 85 3 85 15 0
11 -15 16 -62 18 l-62 3 -3 107 c-3 92 -5 107 -21 110 -9 2 -19 -3 -22 -10z"/>
<path d="M3100 1910 l0 -130 85 0 c78 0 85 2 85 20 0 18 -7 20 -65 20 l-65 0
0 110 c0 103 -1 110 -20 110 -19 0 -20 -7 -20 -130z"/>
<path d="M2042 1438 c1 -51 3 -74 5 -50 4 37 7 42 29 42 13 0 24 -3 24 -7 0
-13 41 -75 46 -70 3 2 -5 21 -17 42 -20 34 -21 38 -6 47 20 10 23 58 5 76 -7
7 -29 12 -50 12 l-38 0 2 -92z m82 60 c16 -26 -4 -52 -43 -56 -30 -3 -31 -2
-31 38 0 40 1 41 31 38 18 -2 37 -11 43 -20z"/>
<path d="M2642 1507 c-16 -17 -22 -36 -22 -68 0 -60 29 -90 86 -88 l39 2 -44
7 c-52 8 -71 30 -71 79 1 49 22 73 72 82 l43 6 -41 2 c-30 1 -46 -5 -62 -22z"/>
<path d="M2476 1501 c-10 -15 -9 -102 0 -133 4 -12 15 -18 32 -17 24 2 24 2 5
6 -20 4 -23 10 -23 58 0 43 4 54 18 58 15 4 15 5 0 6 -9 0 -18 9 -20 19 -3 14
-5 15 -12 3z"/>
<path d="M2200 1472 c-16 -13 -22 -29 -22 -57 0 -47 21 -66 71 -63 l36 1 -35
4 c-42 5 -60 19 -60 44 0 16 8 19 45 19 38 0 45 3 45 19 0 22 -25 51 -45 51
-7 0 -23 -8 -35 -18z m51 -2 c34 -19 23 -40 -21 -40 -43 0 -49 9 -24 34 18 19
20 19 45 6z"/>
<path d="M2355 1481 c-11 -5 -23 -7 -27 -4 -5 2 -7 -26 -7 -64 l1 -68 8 55 c7
47 28 80 49 80 23 -1 36 -26 42 -77 l6 -58 2 57 c2 76 -21 100 -74 79z"/>
<path d="M2800 1479 c-12 -9 -12 -10 3 -5 23 7 57 -10 57 -28 0 -8 -16 -16
-39 -20 -41 -6 -56 -25 -46 -57 7 -21 59 -27 71 -8 4 8 9 7 15 -2 5 -9 9 10 9
48 0 51 -3 64 -19 73 -24 13 -32 12 -51 -1z m60 -77 c0 -25 -19 -42 -47 -42
-31 0 -42 29 -18 46 28 20 65 18 65 -4z"/>
<path d="M2945 1479 c-4 -6 -13 -8 -21 -5 -11 4 -14 -8 -13 -62 l1 -67 8 55
c8 52 32 86 51 74 5 -3 9 0 9 5 0 14 -27 14 -35 0z"/>
<path d="M1953 1413 c9 -2 25 -2 35 0 9 3 1 5 -18 5 -19 0 -27 -2 -17 -5z"/>
<path d="M3013 1413 c9 -2 25 -2 35 0 9 3 1 5 -18 5 -19 0 -27 -2 -17 -5z"/>
</g>
</svg>
